<svg width="871" height="866" viewBox="0 0 871 866" fill="none" xmlns="http://www.w3.org/2000/svg">
<path d="M421.288 58.7093C421.297 53.4079 420.262 48.1565 418.242 43.2551C416.221 38.3536 413.255 33.8981 409.513 30.1428C405.771 26.3876 401.326 23.4062 396.432 21.3689C391.537 19.3315 386.29 18.2782 380.988 18.2689L61.7086 17.7117C56.4071 17.7025 51.1558 18.7375 46.2543 20.7577C41.3529 22.778 36.8973 25.7438 33.1421 29.486C29.3869 33.2282 26.4055 37.6733 24.3681 42.5677C22.3308 47.462 21.2774 52.7098 21.2682 58.0112L20.711 377.291C20.7017 382.592 21.7368 387.844 23.757 392.745C25.7772 397.646 28.7431 402.102 32.4853 405.857C36.2274 409.612 40.6726 412.594 45.5669 414.631C50.4613 416.669 55.709 417.722 61.0105 417.731L380.29 418.288C385.591 418.298 390.843 417.263 395.744 415.242C400.646 413.222 405.101 410.256 408.857 406.514C412.612 402.772 415.593 398.327 417.63 393.432C419.668 388.538 420.721 383.29 420.73 377.989L421.288 58.7093Z" stroke="#8EF1FD" stroke-width="2"/>
<path d="M853 58.21C853 47.5456 848.764 37.3181 841.223 29.7772C833.682 22.2364 823.454 18 812.79 18H493.21C482.546 18 472.318 22.2364 464.777 29.7772C457.236 37.3181 453 47.5456 453 58.21V377.79C453 388.454 457.236 398.682 464.777 406.223C472.318 413.764 482.546 418 493.21 418H812.79C823.454 418 833.682 413.764 841.223 406.223C848.764 398.682 853 388.454 853 377.79V58.21Z" stroke="#FAE0FF" stroke-width="2"/>
<path d="M421.288 490.709C421.297 485.408 420.262 480.157 418.242 475.255C416.221 470.354 413.255 465.898 409.513 462.143C405.771 458.388 401.326 455.406 396.432 453.369C391.537 451.332 386.29 450.278 380.988 450.269L61.7086 449.712C56.4071 449.702 51.1558 450.738 46.2543 452.758C41.3529 454.778 36.8973 457.744 33.1421 461.486C29.3869 465.228 26.4055 469.673 24.3681 474.568C22.3308 479.462 21.2774 484.71 21.2682 490.011L20.711 809.291C20.7017 814.592 21.7368 819.844 23.757 824.745C25.7772 829.646 28.7431 834.102 32.4853 837.857C36.2274 841.612 40.6726 844.594 45.5669 846.631C50.4613 848.669 55.709 849.722 61.0105 849.731L380.29 850.288C385.591 850.298 390.843 849.263 395.744 847.242C400.646 845.222 405.101 842.256 408.857 838.514C412.612 834.772 415.593 830.327 417.63 825.432C419.668 820.538 420.721 815.29 420.73 809.989L421.288 490.709Z" stroke="#8EF1FD" stroke-width="2"/>
<path d="M853.288 490.709C853.297 485.408 852.262 480.157 850.242 475.255C848.221 470.354 845.255 465.898 841.513 462.143C837.771 458.388 833.326 455.406 828.432 453.369C823.537 451.332 818.29 450.278 812.988 450.269L493.709 449.712C488.407 449.702 483.156 450.738 478.254 452.758C473.353 454.778 468.897 457.744 465.142 461.486C461.387 465.228 458.405 469.673 456.368 474.568C454.331 479.462 453.277 484.71 453.268 490.011L452.711 809.291C452.702 814.592 453.737 819.844 455.757 824.745C457.777 829.646 460.743 834.102 464.485 837.857C468.227 841.612 472.673 844.594 477.567 846.631C482.461 848.669 487.709 849.722 493.01 849.731L812.29 850.288C817.591 850.298 822.843 849.263 827.744 847.242C832.646 845.222 837.101 842.256 840.856 838.514C844.612 834.772 847.593 830.327 849.63 825.432C851.668 820.538 852.721 815.29 852.73 809.989L853.288 490.709Z" stroke="#8EF1FD" stroke-width="2"/>
<path d="M712.959 108.25L702.879 112.8" stroke="#C68EA7" stroke-width="2"/>
<path d="M702.88 112.8C690.8 116.77 678.82 110.82 666.7 109.67C658.787 108.91 650.87 108.807 642.95 109.36C633.66 110.01 623.45 112.54 613.75 114.54C611.937 114.92 608.52 114.42 603.5 113.04" stroke="#F6CFD9" stroke-width="2"/>
<path d="M603.5 113.04L595.5 109.54" stroke="#BC84A0" stroke-width="2"/>
<path d="M595.499 109.54C580.659 103.19 563.929 102.06 551.199 113.71C537.959 125.83 529.949 143.33 525.429 160.79C525.302 161.279 525.35 161.798 525.565 162.258C525.78 162.717 526.149 163.089 526.609 163.31C535.179 167.35 534.689 193.07 535.309 205.56" stroke="#C68EA7" stroke-width="2"/>
<path d="M535.309 205.56C534.989 211.7 536.709 217.32 537.849 223.36C538.999 229.46 544.489 234.22 550.469 230.87C552.949 229.48 555.089 226.38 557.509 224.06" stroke="#BC84A0" stroke-width="2"/>
<path d="M557.51 224.06C561.51 246.967 572.67 265.45 590.99 279.51C591.883 280.197 593.706 281.11 596.46 282.25" stroke="#F6CFD9" stroke-width="2"/>
<path d="M596.459 282.25C598.606 286.903 601.922 290.43 606.409 292.83C607.139 293.22 608.099 294.67 608.379 295.68C611.759 308.06 622.169 316.26 633.999 319.96" stroke="#E5B8C8" stroke-width="2"/>
<path d="M634 319.96C635.96 321.62 637.38 324.08 638.88 325.51C646.4 332.67 658.14 333.13 666.12 326.4C668.13 324.71 669.85 322.14 671.79 320" stroke="#FAA1C3" stroke-width="2"/>
<path d="M671.789 320C681.796 317.02 689.536 311.203 695.009 302.55C697.429 298.72 696.709 294.93 700.929 292.06C704.516 289.62 707.469 286.517 709.789 282.75" stroke="#E5B8C8" stroke-width="2"/>
<path d="M709.789 282.75C727.809 272.14 741.579 253.62 746.389 233.17C747.302 229.27 748.052 226.353 748.639 224.42C748.712 224.18 748.876 224.04 749.129 224C749.256 223.98 749.379 223.967 749.499 223.96" stroke="#F6CFD9" stroke-width="2"/>
<path d="M749.5 223.96C751.3 226.59 753.51 229.72 756.55 230.81C766.85 234.51 767.8 223.06 769.32 216.36C769.993 213.393 770.403 210.443 770.55 207.51C770.983 199.07 771.703 190.65 772.71 182.25" stroke="#C68EA7" stroke-width="2"/>
<path d="M772.709 182.25C772.389 176.27 774.199 166.26 780.149 163.14C780.462 162.98 780.652 162.723 780.719 162.37C781.129 160.1 780.069 158.35 779.609 156.62C774.119 135.69 759.529 108.06 735.859 104.64C728.389 103.56 720.119 105.59 712.959 108.25" stroke="#BC84A0" stroke-width="2"/>
<path d="M772.709 182.25C768.019 182.81 767.318 175.33 766.248 171.49C763.968 163.297 760.092 154.023 754.618 143.67C747.238 129.69 738.149 117.29 723.019 111.72C721.229 111.06 712.709 110.48 712.959 108.25" stroke="#8D5049" stroke-width="2"/>
<path d="M749.499 223.96C727.139 192.8 746.199 126.92 702.879 112.8" stroke="#C79C82" stroke-width="2"/>
<path d="M709.789 282.75C709.859 279.72 710.929 276.89 710.539 274.07C709.289 265.14 703.409 260.25 695.569 256.61C690.169 254.1 683.769 253.74 677.789 252.5" stroke="#E5C6A3" stroke-width="2"/>
<path d="M677.789 252.5C676.489 245.15 671.479 240.6 664.529 238.52C652.909 235.04 631.129 236.74 628.729 252.23" stroke="#AA988A" stroke-width="2"/>
<path d="M628.729 252.23C624.676 253.25 620.562 254.097 616.389 254.77C605.839 256.48 596.199 264.5 595.259 275.49C595.069 277.69 596.029 280.03 596.459 282.25" stroke="#E5C6A3" stroke-width="2"/>
<path d="M557.51 224.06C561.87 215.64 564.773 208.033 566.22 201.24C568.1 192.467 569.44 184.803 570.24 178.25C573.2 153.97 575.47 121.94 603.5 113.04" stroke="#BC927B" stroke-width="2"/>
<path d="M671.79 320C673.483 312.927 674.13 305.73 673.73 298.41C673.71 298.07 673.533 297.867 673.2 297.8C666.18 296.46 660.46 292.65 654.18 290.57C651.6 289.71 644.57 293.64 642.08 294.88C638.91 296.46 635.74 297.09 632.35 298C632.01 298.087 631.843 298.307 631.85 298.66C631.89 305.86 632.606 312.96 634 319.96" stroke="#EA988C" stroke-width="2"/>
<path d="M677.789 252.5C677.443 257.4 675.173 261.22 670.979 263.96C665.409 267.6 657.789 272.12 651.069 271.37C645.689 270.76 641.779 267.79 637.539 265.22C631.999 261.85 628.499 258.82 628.729 252.23" stroke="#998179" stroke-width="2"/>
<path d="M595.499 109.54C594.269 110.89 593.479 111.63 591.519 111.91C574.369 114.4 564.639 129.27 560.719 144.49C557.499 156.963 554.239 169.423 550.939 181.87C548.972 189.29 545.819 196.153 541.479 202.46C539.959 204.667 537.902 205.7 535.309 205.56" stroke="#8D5049" stroke-width="2"/>
<path d="M605.509 183.42C596.009 186.28 594.449 194.64 594.989 203.39C595.509 211.91 599.649 219.49 608.939 219.61C617.052 219.717 621.975 215.643 623.709 207.39C624.459 203.8 624.299 196.94 623.309 193.66C621.009 186.07 613.289 181.08 605.509 183.42Z" stroke="#AA988A" stroke-width="2"/>
<path d="M700.66 183.7C678.16 176.01 674 217.71 694.76 219.74C703.53 220.6 709.28 214.77 710.49 206.44C711.82 197.33 710.47 187.05 700.66 183.7Z" stroke="#AA988A" stroke-width="2"/>
<path d="M615.429 193.24C615.429 191.699 614.816 190.221 613.727 189.132C612.637 188.042 611.159 187.43 609.619 187.43C608.078 187.43 606.6 188.042 605.51 189.132C604.421 190.221 603.809 191.699 603.809 193.24C603.809 194.781 604.421 196.259 605.51 197.348C606.6 198.438 608.078 199.05 609.619 199.05C611.159 199.05 612.637 198.438 613.727 197.348C614.816 196.259 615.429 194.781 615.429 193.24Z" stroke="#AEA9B0" stroke-width="2"/>
<path d="M702.199 193.28C702.199 191.734 701.585 190.251 700.492 189.158C699.398 188.064 697.915 187.45 696.369 187.45C695.603 187.45 694.845 187.601 694.138 187.894C693.431 188.187 692.788 188.616 692.247 189.158C691.705 189.699 691.276 190.342 690.983 191.049C690.69 191.756 690.539 192.514 690.539 193.28C690.539 194.046 690.69 194.804 690.983 195.511C691.276 196.218 691.705 196.861 692.247 197.402C692.788 197.944 693.431 198.373 694.138 198.666C694.845 198.959 695.603 199.11 696.369 199.11C697.915 199.11 699.398 198.496 700.492 197.402C701.585 196.309 702.199 194.826 702.199 193.28Z" stroke="#AEA9B0" stroke-width="2"/>
<path d="M380.989 18.2688L61.7098 17.7116C39.4141 17.6727 21.3083 35.7153 21.2694 58.011L20.7121 377.291C20.6732 399.586 38.7159 417.692 61.0116 417.731L380.291 418.288C402.587 418.327 420.693 400.284 420.732 377.989L421.289 58.7092C421.328 36.4135 403.285 18.3077 380.989 18.2688Z" fill="#1CE2FB"/>
<path d="M853 377.79C853 388.454 848.764 398.682 841.223 406.223C833.682 413.764 823.454 418 812.79 418H493.21C482.546 418 472.318 413.764 464.777 406.223C457.236 398.682 453 388.454 453 377.79V58.21C453 47.5456 457.236 37.3181 464.777 29.7772C472.318 22.2364 482.546 18 493.21 18H812.79C823.454 18 833.682 22.2364 841.223 29.7772C848.764 37.3181 853 47.5456 853 58.21V377.79ZM712.96 108.25L702.88 112.8C690.8 116.77 678.82 110.82 666.7 109.67C658.787 108.91 650.87 108.807 642.95 109.36C633.66 110.01 623.45 112.54 613.75 114.54C611.937 114.92 608.52 114.42 603.5 113.04L595.5 109.54C580.66 103.19 563.93 102.06 551.2 113.71C537.96 125.83 529.95 143.33 525.43 160.79C525.303 161.279 525.351 161.798 525.566 162.257C525.782 162.717 526.151 163.089 526.61 163.31C535.18 167.35 534.69 193.07 535.31 205.56C534.99 211.7 536.71 217.32 537.85 223.36C539 229.46 544.49 234.22 550.47 230.87C552.95 229.48 555.09 226.38 557.51 224.06C561.51 246.967 572.67 265.45 590.99 279.51C591.883 280.197 593.707 281.11 596.46 282.25C598.607 286.903 601.923 290.43 606.41 292.83C607.14 293.22 608.1 294.67 608.38 295.68C611.76 308.06 622.17 316.26 634 319.96C635.96 321.62 637.38 324.08 638.88 325.51C646.4 332.67 658.14 333.13 666.12 326.4C668.13 324.71 669.85 322.14 671.79 320C681.797 317.02 689.537 311.203 695.01 302.55C697.43 298.72 696.71 294.93 700.93 292.06C704.517 289.62 707.47 286.517 709.79 282.75C727.81 272.14 741.58 253.62 746.39 233.17C747.303 229.27 748.053 226.353 748.64 224.42C748.713 224.18 748.877 224.04 749.13 224C749.257 223.98 749.38 223.967 749.5 223.96C751.3 226.59 753.51 229.72 756.55 230.81C766.85 234.51 767.8 223.06 769.32 216.36C769.993 213.393 770.403 210.443 770.55 207.51C770.983 199.07 771.703 190.65 772.71 182.25C772.39 176.27 774.2 166.26 780.15 163.14C780.463 162.98 780.653 162.723 780.72 162.37C781.13 160.1 780.07 158.35 779.61 156.62C774.12 135.69 759.53 108.06 735.86 104.64C728.39 103.56 720.12 105.59 712.96 108.25Z" fill="#F5C1FE"/>
<path d="M772.71 182.25C768.02 182.81 767.32 175.33 766.25 171.49C763.97 163.297 760.094 154.023 754.62 143.67C747.24 129.69 738.15 117.29 723.02 111.72C721.23 111.06 712.71 110.48 712.96 108.25C720.12 105.59 728.39 103.56 735.86 104.64C759.53 108.06 774.12 135.69 779.61 156.62C780.07 158.35 781.13 160.1 780.72 162.37C780.654 162.723 780.464 162.98 780.15 163.14C774.2 166.26 772.39 176.27 772.71 182.25Z" fill="#824641"/>
<path d="M595.501 109.54C594.271 110.89 593.481 111.63 591.521 111.91C574.371 114.4 564.641 129.27 560.721 144.49C557.501 156.963 554.241 169.423 550.941 181.87C548.974 189.29 545.821 196.153 541.481 202.46C539.961 204.667 537.904 205.7 535.311 205.56C534.691 193.07 535.181 167.35 526.611 163.31C526.151 163.089 525.782 162.717 525.567 162.257C525.352 161.798 525.304 161.279 525.431 160.79C529.951 143.33 537.961 125.83 551.201 113.71C563.931 102.06 580.661 103.19 595.501 109.54Z" fill="#975A50"/>
<path d="M712.961 108.25C712.711 110.48 721.231 111.06 723.021 111.72C738.151 117.29 747.241 129.69 754.621 143.67C760.094 154.023 763.971 163.297 766.251 171.49C767.321 175.33 768.021 182.81 772.711 182.25C771.704 190.65 770.984 199.07 770.551 207.51C770.404 210.443 769.994 213.393 769.321 216.36C767.801 223.06 766.851 234.51 756.551 230.81C753.511 229.72 751.301 226.59 749.501 223.96C727.141 192.8 746.201 126.92 702.881 112.8L712.961 108.25Z" fill="#975A50"/>
<path d="M702.88 112.8C746.2 126.92 727.14 192.8 749.5 223.96C749.38 223.967 749.256 223.98 749.13 224C748.876 224.04 748.713 224.18 748.64 224.42C748.053 226.353 747.303 229.27 746.39 233.17C741.58 253.62 727.81 272.14 709.79 282.75C709.86 279.72 710.93 276.89 710.54 274.07C709.29 265.14 703.41 260.25 695.57 256.61C690.17 254.1 683.77 253.74 677.79 252.5C676.49 245.15 671.48 240.6 664.53 238.52C652.91 235.04 631.13 236.74 628.73 252.23C624.676 253.25 620.563 254.097 616.39 254.77C605.84 256.48 596.2 264.5 595.26 275.49C595.07 277.69 596.03 280.03 596.46 282.25C593.706 281.11 591.883 280.197 590.99 279.51C572.67 265.45 561.51 246.967 557.51 224.06C561.87 215.64 564.773 208.033 566.22 201.24C568.1 192.467 569.44 184.803 570.24 178.25C573.2 153.97 575.47 121.94 603.5 113.04C608.52 114.42 611.936 114.92 613.75 114.54C623.45 112.54 633.66 110.01 642.95 109.36C650.87 108.807 658.786 108.91 666.7 109.67C678.82 110.82 690.8 116.77 702.88 112.8ZM605.51 183.42C596.01 186.28 594.45 194.64 594.99 203.39C595.51 211.91 599.65 219.49 608.94 219.61C617.053 219.717 621.976 215.643 623.71 207.39C624.46 203.8 624.3 196.94 623.31 193.66C621.01 186.07 613.29 181.08 605.51 183.42ZM700.66 183.7C678.16 176.01 674 217.71 694.76 219.74C703.53 220.6 709.28 214.77 710.49 206.44C711.82 197.33 710.47 187.05 700.66 183.7Z" fill="#F6DDB4"/>
<path d="M595.501 109.54L603.501 113.04C575.471 121.94 573.2 153.97 570.24 178.25C569.44 184.803 568.1 192.467 566.22 201.24C564.774 208.033 561.871 215.64 557.511 224.06C555.091 226.38 552.95 229.48 550.47 230.87C544.49 234.22 539 229.46 537.85 223.36C536.71 217.32 534.991 211.7 535.311 205.56C537.904 205.7 539.96 204.667 541.48 202.46C545.82 196.153 548.974 189.29 550.941 181.87C554.241 169.423 557.5 156.963 560.72 144.49C564.64 129.27 574.371 114.4 591.521 111.91C593.481 111.63 594.271 110.89 595.501 109.54Z" fill="#824641"/>
<path d="M594.991 203.39C594.451 194.64 596.011 186.28 605.511 183.42C613.291 181.08 621.011 186.07 623.311 193.66C624.301 196.94 624.461 203.8 623.711 207.39C621.977 215.643 617.054 219.717 608.941 219.61C599.651 219.49 595.511 211.91 594.991 203.39ZM615.431 193.24C615.431 191.699 614.819 190.221 613.729 189.132C612.639 188.042 611.162 187.43 609.621 187.43C608.08 187.43 606.602 188.042 605.512 189.132C604.423 190.221 603.811 191.699 603.811 193.24C603.811 194.781 604.423 196.259 605.512 197.348C606.602 198.438 608.08 199.05 609.621 199.05C611.162 199.05 612.639 198.438 613.729 197.348C614.819 196.259 615.431 194.781 615.431 193.24Z" fill="#5D5260"/>
<path d="M694.76 219.74C674 217.71 678.16 176.01 700.66 183.7C710.47 187.05 711.82 197.33 710.49 206.44C709.28 214.77 703.53 220.6 694.76 219.74ZM702.2 193.28C702.2 191.734 701.586 190.251 700.493 189.158C699.399 188.064 697.916 187.45 696.37 187.45C695.604 187.45 694.846 187.601 694.139 187.894C693.432 188.187 692.789 188.616 692.248 189.158C691.706 189.699 691.277 190.342 690.984 191.049C690.691 191.756 690.54 192.514 690.54 193.28C690.54 194.046 690.691 194.804 690.984 195.511C691.277 196.218 691.706 196.861 692.248 197.403C692.789 197.944 693.432 198.373 694.139 198.666C694.846 198.959 695.604 199.11 696.37 199.11C697.916 199.11 699.399 198.496 700.493 197.403C701.586 196.309 702.2 194.826 702.2 193.28Z" fill="#5D5260"/>
<path d="M609.621 199.05C612.829 199.05 615.431 196.449 615.431 193.24C615.431 190.031 612.829 187.43 609.621 187.43C606.412 187.43 603.811 190.031 603.811 193.24C603.811 196.449 606.412 199.05 609.621 199.05Z" fill="white"/>
<path d="M696.369 199.11C699.589 199.11 702.199 196.5 702.199 193.28C702.199 190.06 699.589 187.45 696.369 187.45C693.149 187.45 690.539 190.06 690.539 193.28C690.539 196.5 693.149 199.11 696.369 199.11Z" fill="white"/>
<path d="M677.789 252.5C677.443 257.4 675.173 261.22 670.979 263.96C665.409 267.6 657.789 272.12 651.069 271.37C645.689 270.76 641.779 267.79 637.539 265.22C631.999 261.85 628.499 258.82 628.729 252.23C631.129 236.74 652.909 235.04 664.529 238.52C671.479 240.6 676.489 245.15 677.789 252.5Z" fill="#5D5260"/>
<path d="M628.731 252.23C628.501 258.82 632.001 261.85 637.541 265.22C641.781 267.79 645.691 270.76 651.071 271.37C657.791 272.12 665.411 267.6 670.981 263.96C675.174 261.22 677.444 257.4 677.791 252.5C683.771 253.74 690.171 254.1 695.571 256.61C703.411 260.25 709.291 265.14 710.541 274.07C710.931 276.89 709.861 279.72 709.791 282.75C707.471 286.517 704.518 289.62 700.931 292.06C696.711 294.93 697.431 298.72 695.011 302.55C689.538 311.203 681.798 317.02 671.791 320C673.484 312.927 674.131 305.73 673.731 298.41C673.711 298.07 673.534 297.867 673.201 297.8C666.181 296.46 660.461 292.65 654.181 290.57C651.601 289.71 644.571 293.64 642.081 294.88C638.911 296.46 635.741 297.09 632.351 298C632.011 298.087 631.844 298.307 631.851 298.66C631.891 305.86 632.608 312.96 634.001 319.96C622.171 316.26 611.761 308.06 608.381 295.68C608.101 294.67 607.141 293.22 606.411 292.83C601.924 290.43 598.608 286.903 596.461 282.25C596.031 280.03 595.071 277.69 595.261 275.49C596.201 264.5 605.841 256.48 616.391 254.77C620.564 254.097 624.678 253.25 628.731 252.23Z" fill="#D4AF91"/>
<path d="M671.79 320C669.85 322.14 668.13 324.71 666.12 326.4C658.14 333.13 646.4 332.67 638.88 325.51C637.38 324.08 635.96 321.62 634 319.96C632.606 312.96 631.89 305.86 631.85 298.66C631.843 298.307 632.01 298.087 632.35 298C635.74 297.09 638.91 296.46 642.08 294.88C644.57 293.64 651.6 289.71 654.18 290.57C660.46 292.65 666.18 296.46 673.2 297.8C673.533 297.867 673.71 298.07 673.73 298.41C674.13 305.73 673.483 312.927 671.79 320Z" fill="#FF8087"/>
<path d="M380.989 450.269L61.7098 449.712C39.4141 449.673 21.3083 467.715 21.2694 490.011L20.7121 809.291C20.6732 831.586 38.7159 849.692 61.0116 849.731L380.291 850.288C402.587 850.327 420.693 832.284 420.732 809.989L421.289 490.709C421.328 468.414 403.285 450.308 380.989 450.269Z" fill="#1CE2FB"/>
<path d="M812.989 450.269L493.71 449.712C471.414 449.673 453.308 467.715 453.269 490.011L452.712 809.291C452.673 831.586 470.716 849.692 493.012 849.731L812.291 850.288C834.587 850.327 852.693 832.284 852.732 809.989L853.289 490.709C853.328 468.414 835.285 450.308 812.989 450.269Z" fill="#1CE2FB"/>
</svg>
