<?xml version="1.0" standalone="no"?>
<!DOCTYPE svg PUBLIC "-//W3C//DTD SVG 20010904//EN"
 "http://www.w3.org/TR/2001/REC-SVG-20010904/DTD/svg10.dtd">
<svg version="1.0" xmlns="http://www.w3.org/2000/svg"
 width="871.000000pt" height="871.000000pt" viewBox="0 0 871.000000 871.000000"
 preserveAspectRatio="xMidYMid meet">
<metadata>
Created by potrace 1.14, written by Peter Selinger 2001-2017
</metadata>
<g transform="translate(0.000000,871.000000) scale(0.100000,-0.100000)"
fill="#000000" stroke="none">
<path d="M597 8524 c-1 -1 -18 -4 -37 -7 -120 -16 -252 -105 -303 -204 -51
-100 -51 -88 -53 -706 -1 -318 -4 -584 -7 -591 -3 -8 -3 -17 0 -20 4 -3 5 -39
4 -78 -3 -95 -3 -87 1 -131 3 -21 1 -40 -2 -42 -4 -3 -4 -22 0 -44 4 -22 4
-45 -1 -52 -4 -7 -4 -20 0 -28 5 -9 5 -25 1 -36 -4 -11 -4 -34 1 -52 4 -18 4
-35 0 -38 -4 -2 -6 -21 -3 -42 2 -21 3 -42 3 -48 -4 -87 -3 -116 1 -121 3 -3
2 -20 -2 -39 -4 -20 -4 -32 1 -29 5 3 5 -5 1 -17 -5 -12 -6 -40 -2 -61 4 -21
5 -38 1 -38 -9 0 -6 -83 3 -98 4 -7 4 -12 -1 -12 -9 0 -10 -51 -1 -66 3 -5 2
-18 -2 -29 -4 -11 -4 -32 1 -47 4 -15 4 -30 1 -32 -6 -4 -7 -82 -2 -96 1 -3 1
-9 0 -15 -6 -25 -5 -123 1 -147 4 -16 4 -28 0 -28 -11 0 -8 -84 4 -92 7 -5 7
-8 0 -8 -11 0 -12 -141 -1 -159 4 -6 4 -11 -1 -11 -10 0 -9 -333 2 -410 8 -66
49 -154 87 -193 15 -15 25 -27 21 -27 -19 0 108 -83 156 -102 55 -21 65 -22
661 -24 1225 -6 2726 -5 2753 1 69 15 150 58 212 112 41 37 101 143 112 198 7
33 12 993 14 2210 1 1260 4 1192 -62 1297 -56 87 -181 178 -245 178 -13 0 -25
4 -28 9 -3 5 -614 9 -1393 11 -764 1 -1502 2 -1641 3 -140 1 -254 1 -255 1z"/>
<path d="M4879 8516 c-3 -3 -21 -7 -40 -9 -37 -3 -122 -43 -160 -75 -90 -74
-149 -184 -154 -288 -1 -28 -5 -56 -8 -61 -3 -5 -2 -15 3 -22 4 -8 5 -25 1
-40 -5 -14 -4 -38 0 -53 4 -16 4 -30 0 -33 -5 -2 -5 -25 -1 -49 4 -25 4 -50 0
-56 -4 -6 -5 -24 -3 -38 3 -15 4 -36 4 -47 0 -11 0 -45 0 -75 0 -30 0 -61 0
-67 -2 -31 -1 -70 2 -93 2 -14 -1 -33 -5 -42 -5 -10 -5 -18 0 -18 8 0 6 -79
-2 -88 -2 -2 0 -17 4 -33 5 -16 5 -31 1 -34 -4 -2 -5 -25 -1 -49 4 -25 4 -50
0 -56 -4 -6 -5 -24 -3 -38 3 -15 4 -36 4 -47 0 -11 0 -45 0 -75 0 -30 0 -61 0
-67 -2 -31 -1 -70 2 -93 2 -14 -1 -33 -5 -42 -5 -11 -5 -18 1 -18 6 0 7 -8 3
-21 -4 -11 -5 -45 -2 -75 3 -30 3 -57 0 -59 -4 -2 -4 -25 0 -49 4 -25 4 -50 0
-56 -4 -6 -5 -24 -3 -38 3 -15 4 -36 4 -47 0 -11 0 -45 0 -75 0 -30 0 -61 0
-67 -2 -31 -1 -70 2 -93 2 -14 -1 -33 -5 -42 -5 -10 -5 -18 0 -18 8 0 6 -79
-2 -88 -2 -2 0 -17 4 -33 5 -16 5 -31 1 -34 -4 -2 -5 -25 -1 -49 4 -25 4 -50
0 -56 -4 -6 -5 -24 -3 -38 3 -15 4 -36 4 -47 0 -11 0 -45 0 -75 0 -30 0 -61 0
-67 -2 -31 -1 -70 2 -93 2 -14 -1 -33 -5 -42 -5 -11 -5 -18 1 -18 6 0 7 -8 3
-21 -4 -11 -5 -45 -2 -75 3 -30 3 -57 0 -59 -4 -2 -4 -25 0 -49 4 -25 4 -50 0
-56 -4 -6 -5 -24 -3 -38 3 -15 4 -36 4 -47 0 -11 0 -45 0 -75 0 -30 0 -61 0
-67 -3 -39 -2 -70 2 -88 2 -11 1 -34 -4 -52 -4 -18 -4 -31 1 -28 4 2 7 -10 8
-28 3 -105 105 -242 224 -302 40 -20 78 -33 85 -31 7 3 15 1 18 -4 4 -6 628
-10 1668 -10 1812 0 1698 -3 1808 57 63 34 112 83 149 148 16 28 29 53 30 57
0 4 7 26 15 49 13 36 15 271 15 1701 0 1646 -1 1660 -21 1720 -35 104 -100
184 -191 233 -106 58 0 55 -1794 55 -908 0 -1653 -2 -1655 -4z"/>
<path d="M597 4204 c-1 -1 -20 -4 -42 -7 -140 -20 -264 -118 -321 -255 l-28
-67 -3 -540 c-2 -297 -3 -562 -3 -590 0 -27 2 -60 4 -72 3 -13 1 -25 -4 -28
-4 -3 -4 -20 0 -39 4 -19 5 -37 3 -40 -3 -2 -4 -21 -4 -40 1 -20 1 -60 1 -88
0 -121 1 -161 5 -169 3 -4 1 -10 -3 -13 -5 -3 -6 -25 -2 -49 3 -24 3 -52 0
-63 -4 -10 -4 -28 0 -39 4 -11 4 -28 1 -39 -4 -10 -4 -40 -1 -67 3 -26 3 -46
-2 -43 -7 4 -5 -20 7 -78 2 -10 -1 -18 -6 -18 -5 0 -4 -11 1 -26 6 -14 7 -23
2 -21 -4 3 -7 -13 -7 -34 0 -21 3 -39 7 -39 4 0 5 -6 3 -12 -9 -25 -11 -98 -3
-98 5 0 6 -4 3 -10 -10 -16 -12 -81 -3 -86 5 -3 5 -10 2 -16 -10 -15 -11 -168
-2 -194 4 -12 4 -25 0 -28 -10 -11 -8 -170 3 -178 7 -5 7 -8 0 -8 -6 0 -9 -32
-7 -82 3 -99 3 -84 0 -186 -2 -48 1 -84 7 -86 7 -3 6 -5 0 -5 -11 -1 -12 -157
-1 -222 26 -165 166 -308 331 -338 28 -5 544 -10 1180 -11 621 -1 1360 -2
1640 -2 566 -1 563 -1 670 67 85 54 158 153 182 247 7 30 12 673 14 2143 2
973 -1 1211 -11 1253 -8 29 -18 52 -22 52 -5 0 -7 4 -4 8 7 11 -37 76 -83 125
-33 35 -111 89 -136 93 -5 2 -32 9 -58 17 -41 13 -230 15 -1365 17 -724 1
-1458 2 -1630 3 -173 1 -314 1 -315 1z"/>
<path d="M4895 4199 c-165 -21 -291 -121 -352 -280 -14 -39 -17 -107 -18 -570
-2 -290 -6 -532 -9 -538 -4 -6 -4 -11 1 -11 7 0 9 -48 3 -67 -1 -5 -2 -12 -1
-17 1 -5 2 -32 1 -60 -1 -65 0 -104 4 -138 2 -16 0 -28 -4 -28 -4 0 -4 -17 -1
-37 4 -21 4 -49 1 -63 -4 -14 -4 -38 0 -55 3 -16 3 -43 0 -60 -3 -16 -3 -49 0
-72 4 -23 3 -49 -2 -57 -6 -10 -5 -16 2 -16 7 0 8 -6 2 -16 -5 -9 -6 -34 -2
-55 4 -21 4 -39 0 -39 -7 0 -3 -81 5 -88 3 -3 0 -11 -6 -19 -8 -9 -8 -13 -1
-13 7 0 8 -10 2 -29 -4 -15 -4 -34 0 -41 5 -7 6 -20 3 -28 -9 -22 -8 -106 1
-120 4 -6 4 -12 -1 -12 -9 0 -9 -57 0 -66 3 -3 3 -12 0 -19 -8 -22 -9 -285 -1
-285 4 0 5 -7 1 -16 -10 -27 -9 -684 1 -684 6 0 5 -5 -1 -11 -14 -14 9 -114
40 -179 51 -104 175 -198 291 -219 26 -5 539 -10 1140 -10 600 -1 1339 -2
1641 -3 504 -1 555 1 605 17 53 18 133 64 175 102 41 37 95 132 112 197 3 12
7 332 9 711 2 380 4 702 5 715 0 14 0 198 0 410 0 212 0 630 1 930 0 300 -2
565 -6 590 -17 112 -97 231 -192 286 -24 14 -70 34 -103 44 -55 16 -138 18
-1257 19 -660 1 -1388 3 -1619 4 -231 1 -443 -1 -470 -4z"/>
</g>
</svg>
